<svg width="231" height="49" viewBox="0 0 231 49" fill="none" xmlns="http://www.w3.org/2000/svg">
<rect width="231" height="49" fill="black"/>
<path d="M51.5146 20.329H57.8846V29H56.5586V21.577H52.8406V29H51.5146V20.329ZM60.2817 24.203C60.845 23.657 61.5427 23.384 62.3747 23.384C63.2067 23.384 63.9 23.657 64.4547 24.203C65.018 24.7403 65.2997 25.4293 65.2997 26.27C65.2997 27.102 65.018 27.7953 64.4547 28.35C63.9 28.896 63.2067 29.169 62.3747 29.169C61.5427 29.169 60.845 28.896 60.2817 28.35C59.727 27.7953 59.4497 27.102 59.4497 26.27C59.4497 25.4293 59.727 24.7403 60.2817 24.203ZM61.1917 27.557C61.4864 27.869 61.8807 28.025 62.3747 28.025C62.8687 28.025 63.263 27.869 63.5577 27.557C63.8524 27.2363 63.9997 26.8117 63.9997 26.283C63.9997 25.7023 63.8394 25.2647 63.5187 24.97C63.2067 24.6753 62.8254 24.528 62.3747 24.528C61.924 24.528 61.5384 24.6753 61.2177 24.97C60.9057 25.2647 60.7497 25.7023 60.7497 26.283C60.7497 26.8117 60.897 27.2363 61.1917 27.557ZM67.0972 23.527H71.2052V27.83H72.0372V30.56H70.8672V29H67.0452V30.56H65.8752V27.83C66.3172 27.804 66.6509 27.5657 66.8762 27.115C67.0236 26.7943 67.0972 26.3133 67.0972 25.672V23.527ZM69.9312 27.83V24.697H68.3192V26.153C68.3192 26.9417 68.1069 27.5007 67.6822 27.83H69.9312ZM72.9515 23.527H77.7095V29H76.4355V24.697H74.2255V29H72.9515V23.527ZM79.3246 23.527H80.5986V26.634L84.3426 23.033V29H83.0686V25.815L79.3246 29.416V23.527ZM90.1895 23.774V25.204C89.7302 24.7533 89.2145 24.528 88.6425 24.528C88.1572 24.528 87.7542 24.6883 87.4335 25.009C87.1215 25.321 86.9655 25.7413 86.9655 26.27C86.9655 26.816 87.1302 27.2537 87.4595 27.583C87.7715 27.8777 88.1572 28.025 88.6165 28.025C89.2492 28.025 89.7735 27.791 90.1895 27.323V28.74C89.7302 29.026 89.1755 29.169 88.5255 29.169C87.6502 29.169 86.9568 28.9003 86.4455 28.363C85.9255 27.8257 85.6655 27.141 85.6655 26.309C85.6655 25.451 85.9428 24.7447 86.4975 24.19C87.0348 23.6527 87.7672 23.384 88.6945 23.384C89.2232 23.384 89.7215 23.514 90.1895 23.774ZM95.4145 24.164V23.527H96.6885V29H95.4145V28.428C94.9898 28.922 94.4438 29.169 93.7765 29.169C92.9705 29.169 92.3248 28.883 91.8395 28.311C91.3628 27.739 91.1245 27.0543 91.1245 26.257C91.1245 25.3903 91.3802 24.697 91.8915 24.177C92.4115 23.6483 93.0442 23.384 93.7895 23.384C94.4742 23.384 95.0158 23.644 95.4145 24.164ZM93.9455 24.528C93.4948 24.528 93.1265 24.697 92.8405 25.035C92.5632 25.373 92.4245 25.789 92.4245 26.283C92.4245 26.7683 92.5632 27.18 92.8405 27.518C93.1265 27.856 93.4948 28.025 93.9455 28.025C94.3788 28.025 94.7428 27.8733 95.0375 27.57C95.3408 27.2667 95.4925 26.842 95.4925 26.296C95.4925 25.7327 95.3408 25.2993 95.0375 24.996C94.7428 24.684 94.3788 24.528 93.9455 24.528ZM102.074 24.697H100.475V29H99.201V24.697H97.602V23.527H102.074V24.697ZM102.989 29V23.527H104.263V25.464H104.991C105.225 25.464 105.415 25.4727 105.563 25.49C105.71 25.4987 105.888 25.5463 106.096 25.633C106.304 25.7197 106.486 25.8497 106.642 26.023C106.928 26.3437 107.071 26.7423 107.071 27.219C107.071 27.765 106.906 28.2027 106.577 28.532C106.429 28.6793 106.252 28.792 106.044 28.87C105.844 28.9393 105.675 28.9783 105.537 28.987C105.407 28.9957 105.22 29 104.978 29H102.989ZM104.263 27.908H104.848C105.16 27.908 105.381 27.869 105.511 27.791C105.701 27.6523 105.797 27.466 105.797 27.232C105.797 26.9893 105.706 26.8073 105.524 26.686C105.385 26.5993 105.164 26.556 104.861 26.556H104.263V27.908ZM112.432 23.774V25.204C111.972 24.7533 111.457 24.528 110.885 24.528C110.399 24.528 109.996 24.6883 109.676 25.009C109.364 25.321 109.208 25.7413 109.208 26.27C109.208 26.816 109.372 27.2537 109.702 27.583C110.014 27.8777 110.399 28.025 110.859 28.025C111.491 28.025 112.016 27.791 112.432 27.323V28.74C111.972 29.026 111.418 29.169 110.768 29.169C109.892 29.169 109.199 28.9003 108.688 28.363C108.168 27.8257 107.908 27.141 107.908 26.309C107.908 25.451 108.185 24.7447 108.74 24.19C109.277 23.6527 110.009 23.384 110.937 23.384C111.465 23.384 111.964 23.514 112.432 23.774ZM112.951 29L114.667 26.829C114.329 26.777 114.038 26.6383 113.796 26.413C113.492 26.1183 113.341 25.7413 113.341 25.282C113.341 24.762 113.51 24.3417 113.848 24.021C114.194 23.6917 114.723 23.527 115.434 23.527H117.475V29H116.201V26.985H115.941L114.446 29H112.951ZM116.201 25.945V24.619H115.46C115.156 24.619 114.935 24.658 114.797 24.736C114.589 24.866 114.485 25.048 114.485 25.282C114.485 25.516 114.571 25.6937 114.745 25.815C114.875 25.9017 115.109 25.945 115.447 25.945H116.201ZM122.12 29V23.527H123.394V25.555H125.656V23.527H126.93V29H125.656V26.725H123.394V29H122.12ZM132.548 24.164V23.527H133.822V29H132.548V28.428C132.124 28.922 131.578 29.169 130.91 29.169C130.104 29.169 129.459 28.883 128.973 28.311C128.497 27.739 128.258 27.0543 128.258 26.257C128.258 25.3903 128.514 24.697 129.025 24.177C129.545 23.6483 130.178 23.384 130.923 23.384C131.608 23.384 132.15 23.644 132.548 24.164ZM131.079 24.528C130.629 24.528 130.26 24.697 129.974 25.035C129.697 25.373 129.558 25.789 129.558 26.283C129.558 26.7683 129.697 27.18 129.974 27.518C130.26 27.856 130.629 28.025 131.079 28.025C131.513 28.025 131.877 27.8733 132.171 27.57C132.475 27.2667 132.626 26.842 132.626 26.296C132.626 25.7327 132.475 25.2993 132.171 24.996C131.877 24.684 131.513 24.528 131.079 24.528ZM138.472 29V23.527H139.746V25.555H142.008V23.527H143.282V29H142.008V26.725H139.746V29H138.472ZM145.442 24.203C146.005 23.657 146.703 23.384 147.535 23.384C148.367 23.384 149.06 23.657 149.615 24.203C150.178 24.7403 150.46 25.4293 150.46 26.27C150.46 27.102 150.178 27.7953 149.615 28.35C149.06 28.896 148.367 29.169 147.535 29.169C146.703 29.169 146.005 28.896 145.442 28.35C144.887 27.7953 144.61 27.102 144.61 26.27C144.61 25.4293 144.887 24.7403 145.442 24.203ZM146.352 27.557C146.647 27.869 147.041 28.025 147.535 28.025C148.029 28.025 148.423 27.869 148.718 27.557C149.013 27.2363 149.16 26.8117 149.16 26.283C149.16 25.7023 149 25.2647 148.679 24.97C148.367 24.6753 147.986 24.528 147.535 24.528C147.084 24.528 146.699 24.6753 146.378 24.97C146.066 25.2647 145.91 25.7023 145.91 26.283C145.91 26.8117 146.057 27.2363 146.352 27.557ZM151.789 23.527H153.934C154.48 23.527 154.896 23.6353 155.182 23.852C155.52 24.1207 155.689 24.4717 155.689 24.905C155.689 25.399 155.473 25.7543 155.039 25.971C155.317 26.023 155.564 26.1443 155.78 26.335C156.066 26.595 156.209 26.946 156.209 27.388C156.209 27.9167 156.01 28.3327 155.611 28.636C155.282 28.8787 154.862 29 154.35 29H151.789V23.527ZM153.063 25.659H153.713C153.939 25.659 154.108 25.62 154.22 25.542C154.385 25.438 154.467 25.2907 154.467 25.1C154.467 24.918 154.394 24.775 154.246 24.671C154.142 24.6017 153.956 24.567 153.687 24.567H153.063V25.659ZM153.063 27.96H154.012C154.298 27.96 154.519 27.908 154.675 27.804C154.849 27.6913 154.935 27.531 154.935 27.323C154.935 27.0977 154.853 26.9373 154.688 26.842C154.541 26.7467 154.329 26.699 154.051 26.699H153.063V27.96ZM158.086 24.203C158.65 23.657 159.347 23.384 160.179 23.384C161.011 23.384 161.705 23.657 162.259 24.203C162.823 24.7403 163.104 25.4293 163.104 26.27C163.104 27.102 162.823 27.7953 162.259 28.35C161.705 28.896 161.011 29.169 160.179 29.169C159.347 29.169 158.65 28.896 158.086 28.35C157.532 27.7953 157.254 27.102 157.254 26.27C157.254 25.4293 157.532 24.7403 158.086 24.203ZM158.996 27.557C159.291 27.869 159.685 28.025 160.179 28.025C160.673 28.025 161.068 27.869 161.362 27.557C161.657 27.2363 161.804 26.8117 161.804 26.283C161.804 25.7023 161.644 25.2647 161.323 24.97C161.011 24.6753 160.63 24.528 160.179 24.528C159.729 24.528 159.343 24.6753 159.022 24.97C158.71 25.2647 158.554 25.7023 158.554 26.283C158.554 26.8117 158.702 27.2363 158.996 27.557ZM168.672 23.774V25.204C168.213 24.7533 167.697 24.528 167.125 24.528C166.64 24.528 166.237 24.6883 165.916 25.009C165.604 25.321 165.448 25.7413 165.448 26.27C165.448 26.816 165.613 27.2537 165.942 27.583C166.254 27.8777 166.64 28.025 167.099 28.025C167.732 28.025 168.256 27.791 168.672 27.323V28.74C168.213 29.026 167.658 29.169 167.008 29.169C166.133 29.169 165.439 28.9003 164.928 28.363C164.408 27.8257 164.148 27.141 164.148 26.309C164.148 25.451 164.425 24.7447 164.98 24.19C165.517 23.6527 166.25 23.384 167.177 23.384C167.706 23.384 168.204 23.514 168.672 23.774ZM173.79 24.697H172.191V29H170.917V24.697H169.318V23.527H173.79V24.697ZM174.704 23.527H175.978V26.634L179.722 23.033V29H178.448V25.815L174.704 29.416V23.527Z" fill="white"/>
</svg>
