<svg width="109" height="28" viewBox="0 0 109 28" fill="none" xmlns="http://www.w3.org/2000/svg">
<path d="M0.2 0.319998H4.24C6.05333 0.319998 7.52 0.466665 8.64 0.759999C9.76 1.05333 10.7467 1.6 11.6 2.4C13.0133 3.73333 13.72 5.49333 13.72 7.68C13.72 8.93333 13.4533 9.98667 12.92 10.84C12.44 11.6667 11.7733 12.28 10.92 12.68C12.3067 13.0267 13.4533 13.6667 14.36 14.6C15.5333 15.8267 16.12 17.4933 16.12 19.6C16.12 21.5467 15.5333 23.1467 14.36 24.4C12.7067 26.1333 10.2133 27 6.88 27H0.2V0.319998ZM4.28 4.16V11.8H5.52C7.01333 11.8 8.12 11.4533 8.84 10.76C9.53333 10.0933 9.88 9.08 9.88 7.72C9.88 6.62667 9.56 5.77333 8.92 5.16C8.22667 4.49333 7.14667 4.16 5.68 4.16H4.28ZM4.28 15.16V23.16H6.76C8.6 23.16 9.94667 22.8133 10.8 22.12C11.68 21.4267 12.12 20.44 12.12 19.16C12.12 18.0133 11.76 17.08 11.04 16.36C10.2133 15.56 8.81333 15.16 6.84 15.16H4.28ZM18.3747 27L23.6547 20.32C22.6147 20.16 21.7214 19.7333 20.9747 19.04C20.0414 18.1333 19.5747 16.9733 19.5747 15.56C19.5747 13.96 20.0947 12.6667 21.1347 11.68C22.2014 10.6667 23.828 10.16 26.0147 10.16H32.2947V27H28.3747V20.8H27.5747L22.9747 27H18.3747ZM28.3747 17.6V13.52H26.0947C25.1614 13.52 24.4814 13.64 24.0547 13.88C23.4147 14.28 23.0947 14.84 23.0947 15.56C23.0947 16.28 23.3614 16.8267 23.8947 17.2C24.2947 17.4667 25.0147 17.6 26.0547 17.6H28.3747ZM39.5334 14.52L37.0134 12.32C37.6534 11.5467 38.5068 10.92 39.5734 10.44C40.6934 9.96 42.0134 9.72 43.5334 9.72C45.2934 9.72 46.7201 10.1067 47.8134 10.88C48.9868 11.7333 49.5734 12.88 49.5734 14.32C49.5734 15.2533 49.3334 16.0267 48.8534 16.64C48.4534 17.1733 47.9201 17.5733 47.2534 17.84C48.2668 18.0533 49.0801 18.4667 49.6934 19.08C50.4134 19.8 50.7734 20.7333 50.7734 21.88C50.7734 23.4 50.2934 24.64 49.3334 25.6C48.0534 26.88 46.0801 27.52 43.4134 27.52C41.6268 27.52 40.1601 27.1867 39.0134 26.52C37.8134 25.8267 36.9334 24.8267 36.3734 23.52L39.4934 21.92C39.8668 22.72 40.3601 23.3067 40.9734 23.68C41.6401 24.1067 42.4801 24.32 43.4934 24.32C44.7201 24.32 45.6134 24.04 46.1734 23.48C46.5734 23.0267 46.7734 22.5333 46.7734 22C46.7734 21.44 46.6001 20.9867 46.2534 20.64C45.8001 20.16 44.8668 19.92 43.4534 19.92H41.6934V16.72H43.1734C44.0268 16.72 44.6668 16.5733 45.0934 16.28C45.5734 15.9067 45.8134 15.4133 45.8134 14.8C45.8134 14.16 45.5734 13.68 45.0934 13.36C44.6934 13.0667 44.0668 12.92 43.2134 12.92C42.4134 12.92 41.6801 13.08 41.0134 13.4C40.4534 13.6667 39.9601 14.04 39.5334 14.52ZM67.1906 12.12V10.16H71.1106V27H67.1906V25.24C65.884 26.76 64.204 27.52 62.1506 27.52C59.6706 27.52 57.684 26.64 56.1906 24.88C54.724 23.12 53.9906 21.0133 53.9906 18.56C53.9906 15.8933 54.7773 13.76 56.3506 12.16C57.9506 10.5333 59.8973 9.72 62.1906 9.72C64.2973 9.72 65.964 10.52 67.1906 12.12ZM62.6706 13.24C61.284 13.24 60.1506 13.76 59.2706 14.8C58.4173 15.84 57.9906 17.12 57.9906 18.64C57.9906 20.1333 58.4173 21.4 59.2706 22.44C60.1506 23.48 61.284 24 62.6706 24C64.004 24 65.124 23.5333 66.0306 22.6C66.964 21.6667 67.4306 20.36 67.4306 18.68C67.4306 16.9467 66.964 15.6133 66.0306 14.68C65.124 13.72 64.004 13.24 62.6706 13.24ZM76.0816 27V10.16H80.0016V16.4H86.9616V10.16H90.8816V27H86.9616V20H80.0016V27H76.0816ZM95.8472 27V10.16H99.7672V16.12H102.007C102.727 16.12 103.314 16.1467 103.767 16.2C104.221 16.2267 104.767 16.3733 105.407 16.64C106.047 16.9067 106.607 17.3067 107.087 17.84C107.967 18.8267 108.407 20.0533 108.407 21.52C108.407 23.2 107.901 24.5467 106.887 25.56C106.434 26.0133 105.887 26.36 105.247 26.6C104.634 26.8133 104.114 26.9333 103.687 26.96C103.287 26.9867 102.714 27 101.967 27H95.8472ZM99.7672 23.64H101.567C102.527 23.64 103.207 23.52 103.607 23.28C104.194 22.8533 104.487 22.28 104.487 21.56C104.487 20.8133 104.207 20.2533 103.647 19.88C103.221 19.6133 102.541 19.48 101.607 19.48H99.7672V23.64Z" fill="black"/>
</svg>
