<svg width="28" height="28" viewBox="0 0 28 28" fill="none" xmlns="http://www.w3.org/2000/svg">
<rect width="28" height="28" rx="6" fill="black"/>
<path d="M20.9233 16.3341C20.7079 16.0418 20.6596 15.7459 20.7774 15.4461C21.0711 14.6463 25.3494 9.56612 23.5671 9.56612C22.3424 9.5824 20.8696 9.56612 19.6954 9.56612C19.4775 9.61918 19.3364 9.73357 19.2482 9.96631C18.5616 11.5495 17.7214 13.4815 16.4901 14.7231C16.3281 14.8538 16.2271 14.8482 16.0425 14.7999C15.1788 13.8905 16.0998 10.7751 15.5745 9.54405C15.471 9.30309 15.2444 9.19425 15.0125 9.13296C13.8399 8.85349 11.1617 9.01984 10.7247 9.5824C10.5998 9.74322 10.5824 9.83098 10.6725 9.84542C11.0889 9.9111 11.3836 10.0682 11.5571 10.3167C11.8844 11.0374 12.1256 14.8764 11.1617 14.8764C10.1978 14.8764 8.64353 11.1088 8.21654 10.0644C8.10291 9.74988 7.81365 9.56959 7.50887 9.51637L4.65729 9.53818C4.15606 9.53818 3.87592 9.78543 4.05358 10.2836C5.53881 13.9703 8.78898 21.1164 13.7739 20.9375C14.2733 20.9375 15.1324 21.1292 15.5224 20.6963C16.0584 19.9852 15.4047 18.7188 16.3237 18.2359C16.5555 18.1126 16.7958 18.2159 16.9949 18.3676C18.0172 19.146 18.5599 20.5122 19.8206 20.927C20.0422 21 20.2365 21.0183 20.4032 20.9818L23.0674 20.938C23.562 20.938 24.0492 20.7179 23.9469 20.1266C23.5585 18.8585 22.0108 17.555 20.9233 16.3341Z" fill="white"/>
</svg>
