<svg width="24" height="26" viewBox="0 0 24 26" fill="none" xmlns="http://www.w3.org/2000/svg">
<path d="M4.45095 16.7926C4.60723 15.4987 5.1379 14.7743 6.13792 14.0317C7.56878 13.0259 9.35613 13.5948 9.35613 13.5948V10.2197C9.79066 10.2085 10.2254 10.2343 10.6551 10.2966V14.6401C10.6551 14.6401 8.86833 14.0712 7.43747 15.0775C6.43799 15.8196 5.90623 16.5446 5.7505 17.8385C5.74562 18.5411 5.87747 19.4595 6.48465 20.2536C6.33453 20.1766 6.18151 20.0889 6.0256 19.9905C4.68807 19.0923 4.44444 17.7449 4.45095 16.7926ZM18.0352 3.97898C17.0509 2.90039 16.6786 1.81139 16.5441 1.04639H17.7823C17.7823 1.04639 17.5354 3.05224 19.3347 5.02481L19.3597 5.05134C18.8747 4.7463 18.43 4.38624 18.0352 3.97898ZM24 7.03691V11.2931C24 11.2931 22.42 11.2312 21.2507 10.9337C19.6179 10.5176 18.5685 9.87954 18.5685 9.87954C18.5685 9.87954 17.8436 9.42449 17.785 9.39277V18.1817C17.785 18.6711 17.651 19.8932 17.2424 20.9125C16.709 22.246 15.8859 23.1212 15.7345 23.3001C15.7345 23.3001 14.7334 24.4832 12.9672 25.28C11.3752 25.9987 9.97742 25.9805 9.55961 25.9987C9.55961 25.9987 7.14338 26.0944 4.96915 24.6814C4.49898 24.3699 4.06011 24.0172 3.6582 23.6277L3.66906 23.6355C5.84383 25.0485 8.25952 24.9528 8.25952 24.9528C8.67787 24.9346 10.0756 24.9528 11.6671 24.2341C13.4317 23.4374 14.4344 22.2543 14.4344 22.2543C14.5842 22.0754 15.4111 21.2001 15.9423 19.8662C16.3498 18.8474 16.4849 17.6247 16.4849 17.1354V8.34745C16.5435 8.3797 17.2679 8.83475 17.2679 8.83475C17.2679 8.83475 18.3179 9.47337 19.9506 9.8889C21.1204 10.1864 22.7 10.2483 22.7 10.2483V6.91314C23.2404 7.03431 23.7011 7.06708 24 7.03691Z" fill="black"/>
<path d="M22.7004 6.91314V10.2472C22.7004 10.2472 21.1208 10.1853 19.951 9.88786C18.3183 9.47181 17.2683 8.83371 17.2683 8.83371C17.2683 8.83371 16.5439 8.37866 16.4853 8.34641V17.1364C16.4853 17.6258 16.3513 18.8484 15.9427 19.8672C15.4093 21.2012 14.5862 22.0764 14.4348 22.2553C14.4348 22.2553 13.4332 23.4384 11.6675 24.2352C10.076 24.9539 8.67828 24.9357 8.25993 24.9539C8.25993 24.9539 5.84424 25.0496 3.66946 23.6366L3.65861 23.6288C3.429 23.4064 3.21287 23.1717 3.01128 22.9257C2.31728 22.0795 1.89188 21.0789 1.78498 20.7934C1.7848 20.7922 1.7848 20.791 1.78498 20.7898C1.61298 20.2937 1.2516 19.1022 1.30098 17.9482C1.38834 15.9122 2.10458 14.6625 2.29395 14.3494C2.79549 13.4957 3.44779 12.7318 4.22184 12.0919C4.90489 11.5396 5.67911 11.1002 6.51273 10.7917C7.41391 10.4295 8.37891 10.2353 9.356 10.2197V13.5948C9.356 13.5948 7.56865 13.028 6.13833 14.0317C5.13831 14.7743 4.60763 15.4987 4.45136 16.7926C4.44485 17.7449 4.68848 19.0923 6.02493 19.991C6.18084 20.0898 6.33385 20.1775 6.48397 20.2541C6.71745 20.5576 7.00162 20.8221 7.32502 21.0368C8.63053 21.8632 9.72443 21.9209 11.1233 21.3842C12.056 21.0254 12.7582 20.2167 13.0837 19.3206C13.2883 18.7611 13.2856 18.1978 13.2856 17.6154V1.04639H16.5412C16.6758 1.81139 17.048 2.90039 18.0323 3.97898C18.4272 4.38624 18.8719 4.7463 19.3568 5.05134C19.5001 5.19955 20.2326 5.93231 21.1729 6.38216C21.6592 6.61469 22.1717 6.79285 22.7004 6.91314V6.91314Z" fill="black"/>
<path d="M0.489258 19.7568V19.7594L0.570042 19.9784C0.560762 19.9529 0.530742 19.8754 0.489258 19.7568Z" fill="black"/>
<path d="M6.51282 10.7916C5.67919 11.1002 4.90498 11.5396 4.22192 12.0918C3.44763 12.7332 2.79548 13.4987 2.29458 14.354C2.10521 14.6661 1.38897 15.9168 1.30161 17.9528C1.25223 19.1068 1.61361 20.2983 1.78561 20.7944C1.78543 20.7956 1.78543 20.7968 1.78561 20.798C1.89413 21.081 2.31791 22.0815 3.01191 22.9303C3.2135 23.1763 3.42963 23.4111 3.65924 23.6334C2.92357 23.1457 2.26746 22.5562 1.71236 21.8839C1.02433 21.0451 0.600014 20.0549 0.489322 19.7626C0.489191 19.7605 0.489191 19.7584 0.489322 19.7564V19.7527C0.316772 19.2571 -0.0456897 18.0651 0.00477284 16.9096C0.0921328 14.8736 0.808375 13.6239 0.997745 13.3108C1.4985 12.4553 2.15067 11.6898 2.92509 11.0486C3.608 10.4961 4.38225 10.0567 5.21598 9.74841C5.73602 9.54161 6.27777 9.38905 6.83187 9.29337C7.66692 9.15366 8.51979 9.14154 9.3588 9.25748V10.2196C8.3808 10.2349 7.41484 10.4291 6.51282 10.7916Z" fill="black"/>
<path d="M16.544 1.04635H13.2884V17.6159C13.2884 18.1983 13.2884 18.76 13.0865 19.3211C12.7577 20.2167 12.0583 21.0253 11.1261 21.3842C9.7267 21.923 8.63281 21.8632 7.32783 21.0368C7.00388 20.823 6.71898 20.5594 6.48462 20.2567C7.59642 20.8251 8.59157 20.8152 9.82437 20.341C10.756 19.9821 11.4565 19.1734 11.7843 18.2774C11.9894 17.7178 11.9867 17.1546 11.9867 16.5726V0H16.4822C16.4822 0 16.4317 0.411884 16.544 1.04635ZM22.7005 5.99104V6.9131C22.1727 6.79263 21.6611 6.61447 21.1757 6.38213C20.2354 5.93228 19.5029 5.19952 19.3596 5.0513C19.5259 5.1559 19.6983 5.25106 19.8762 5.33629C21.0195 5.88339 22.1454 6.04669 22.7005 5.99104Z" fill="black"/>
</svg>
