<svg width="25" height="73" viewBox="0 0 25 73" fill="none" xmlns="http://www.w3.org/2000/svg">
<path d="M9.64 18.12V20H0.68L5.3 14.4C5.99333 13.56 6.52667 12.8667 6.9 12.32C7.36667 11.6267 7.6 10.9867 7.6 10.4C7.6 9.8 7.40667 9.29333 7.02 8.88C6.63333 8.45333 6.08667 8.24 5.38 8.24C4.67333 8.24 4.11333 8.47333 3.7 8.94C3.28667 9.40667 3.06 9.98 3.02 10.66H1.06C1.11333 9.48667 1.48667 8.51333 2.18 7.74C2.95333 6.87333 3.99333 6.44 5.3 6.44C6.64667 6.44 7.7 6.83333 8.46 7.62C9.22 8.40667 9.6 9.35333 9.6 10.46C9.6 11.38 9.28 12.3133 8.64 13.26C8.29333 13.78 7.66 14.58 6.74 15.66L4.66 18.12H9.64ZM20.0672 18.78C19.2272 19.74 18.2205 20.22 17.0472 20.22C15.8739 20.22 14.8672 19.74 14.0272 18.78C12.8939 17.4867 12.3272 15.6733 12.3272 13.34C12.3272 10.9933 12.8939 9.17333 14.0272 7.88C14.8672 6.92 15.8739 6.44 17.0472 6.44C18.2205 6.44 19.2272 6.92 20.0672 7.88C21.2005 9.17333 21.7672 10.9933 21.7672 13.34C21.7672 15.6733 21.2005 17.4867 20.0672 18.78ZM18.8472 9.34C18.3672 8.60667 17.7672 8.24 17.0472 8.24C16.3272 8.24 15.7272 8.60667 15.2472 9.34C14.6339 10.2467 14.3272 11.5733 14.3272 13.32C14.3272 15.0533 14.6339 16.3867 15.2472 17.32C15.7272 18.0533 16.3272 18.42 17.0472 18.42C17.7672 18.42 18.3672 18.0533 18.8472 17.32C19.4605 16.3867 19.7672 15.0533 19.7672 13.32C19.7672 11.5733 19.4605 10.2467 18.8472 9.34Z" fill="black"/>
<path d="M10.64 65.12V67H1.68L6.3 61.4C6.99333 60.56 7.52667 59.8667 7.9 59.32C8.36667 58.6267 8.6 57.9867 8.6 57.4C8.6 56.8 8.40667 56.2933 8.02 55.88C7.63333 55.4533 7.08667 55.24 6.38 55.24C5.67333 55.24 5.11333 55.4733 4.7 55.94C4.28667 56.4067 4.06 56.98 4.02 57.66H2.06C2.11333 56.4867 2.48667 55.5133 3.18 54.74C3.95333 53.8733 4.99333 53.44 6.3 53.44C7.64667 53.44 8.7 53.8333 9.46 54.62C10.22 55.4067 10.6 56.3533 10.6 57.46C10.6 58.38 10.28 59.3133 9.64 60.26C9.29333 60.78 8.66 61.58 7.74 62.66L5.66 65.12H10.64ZM22.0072 65.12V67H13.0472L17.6672 61.4C18.3605 60.56 18.8939 59.8667 19.2672 59.32C19.7339 58.6267 19.9672 57.9867 19.9672 57.4C19.9672 56.8 19.7739 56.2933 19.3872 55.88C19.0005 55.4533 18.4539 55.24 17.7472 55.24C17.0405 55.24 16.4805 55.4733 16.0672 55.94C15.6539 56.4067 15.4272 56.98 15.3872 57.66H13.4272C13.4805 56.4867 13.8539 55.5133 14.5472 54.74C15.3205 53.8733 16.3605 53.44 17.6672 53.44C19.0139 53.44 20.0672 53.8333 20.8272 54.62C21.5872 55.4067 21.9672 56.3533 21.9672 57.46C21.9672 58.38 21.6472 59.3133 21.0072 60.26C20.6605 60.78 20.0272 61.58 19.1072 62.66L17.0272 65.12H22.0072Z" fill="black"/>
<line x1="1" y1="36.5" x2="24" y2="36.5" stroke="black"/>
</svg>
