<svg width="218" height="32" viewBox="0 0 218 32" fill="none" xmlns="http://www.w3.org/2000/svg">
<rect x="0.25" y="0.25" width="217.5" height="31.5" fill="white" stroke="black" stroke-width="0.5"/>
<path d="M193.264 8C192.263 8.00011 191.277 8.23992 190.388 8.69936C189.499 9.1588 188.733 9.8245 188.154 10.6407C187.576 11.457 187.201 12.4 187.061 13.3908C186.922 14.3817 187.022 15.3915 187.352 16.3358C187.683 17.2802 188.236 18.1315 188.963 18.8185C189.691 19.5055 190.572 20.0083 191.534 20.2847C192.496 20.5611 193.51 20.6031 194.491 20.4072C195.472 20.2113 196.392 19.7832 197.174 19.1587L201.82 23.8046C201.952 23.9314 202.127 24.0016 202.31 24C202.492 23.9984 202.667 23.9252 202.796 23.7961C202.925 23.6671 202.998 23.4925 203 23.31C203.002 23.1275 202.931 22.9517 202.805 22.8204L198.158 18.1745C198.895 17.2528 199.356 16.142 199.489 14.9698C199.622 13.7976 199.421 12.6118 198.91 11.5487C198.398 10.4856 197.597 9.58852 196.598 8.96072C195.599 8.33291 194.444 7.9999 193.264 8ZM188.391 14.2642C188.391 12.972 188.905 11.7328 189.819 10.8191C190.732 9.90536 191.972 9.39205 193.264 9.39205C194.556 9.39205 195.795 9.90536 196.709 10.8191C197.623 11.7328 198.136 12.972 198.136 14.2642C198.136 15.5564 197.623 16.7957 196.709 17.7094C195.795 18.6231 194.556 19.1364 193.264 19.1364C191.972 19.1364 190.732 18.6231 189.819 17.7094C188.905 16.7957 188.391 15.5564 188.391 14.2642Z" fill="black"/>
</svg>
