<svg width="131" height="32" viewBox="0 0 131 32" fill="none" xmlns="http://www.w3.org/2000/svg">
<rect width="131" height="32" fill="black"/>
<path d="M18.912 10.328V14.584L23.04 10.328H25.184L20.368 15.16L25.216 21H23.04L19.232 16.264L18.912 16.584V21H17.28V10.328H18.912ZM26.539 15.096C27.2323 14.424 28.091 14.088 29.115 14.088C30.139 14.088 30.9923 14.424 31.675 15.096C32.3683 15.7573 32.715 16.6053 32.715 17.64C32.715 18.664 32.3683 19.5173 31.675 20.2C30.9923 20.872 30.139 21.208 29.115 21.208C28.091 21.208 27.2323 20.872 26.539 20.2C25.8563 19.5173 25.515 18.664 25.515 17.64C25.515 16.6053 25.8563 15.7573 26.539 15.096ZM27.659 19.224C28.0217 19.608 28.507 19.8 29.115 19.8C29.723 19.8 30.2083 19.608 30.571 19.224C30.9337 18.8293 31.115 18.3067 31.115 17.656C31.115 16.9413 30.9177 16.4027 30.523 16.04C30.139 15.6773 29.6697 15.496 29.115 15.496C28.5603 15.496 28.0857 15.6773 27.691 16.04C27.307 16.4027 27.115 16.9413 27.115 17.656C27.115 18.3067 27.2963 18.8293 27.659 19.224ZM35.9194 20.216V24.664H34.3514V14.264H35.9194V15C36.4314 14.392 37.098 14.088 37.9194 14.088C38.8367 14.088 39.61 14.4133 40.2394 15.064C40.8794 15.704 41.1994 16.5467 41.1994 17.592C41.1994 18.6693 40.8687 19.544 40.2074 20.216C39.546 20.8773 38.7887 21.208 37.9354 21.208C37.1354 21.208 36.4634 20.8773 35.9194 20.216ZM37.7274 15.496C37.194 15.496 36.7407 15.688 36.3674 16.072C36.0047 16.4453 35.8234 16.9787 35.8234 17.672C35.8234 18.344 36.0047 18.8667 36.3674 19.24C36.7407 19.6133 37.194 19.8 37.7274 19.8C38.282 19.8 38.73 19.592 39.0714 19.176C39.4234 18.76 39.5994 18.2533 39.5994 17.656C39.5994 17.048 39.4234 16.536 39.0714 16.12C38.73 15.704 38.282 15.496 37.7274 15.496ZM43.2478 16.008L42.2398 15.128C42.4958 14.8187 42.8371 14.568 43.2638 14.376C43.7118 14.184 44.2398 14.088 44.8478 14.088C45.5518 14.088 46.1224 14.2427 46.5598 14.552C47.0291 14.8933 47.2638 15.352 47.2638 15.928C47.2638 16.3013 47.1678 16.6107 46.9758 16.856C46.8158 17.0693 46.6024 17.2293 46.3358 17.336C46.7411 17.4213 47.0664 17.5867 47.3118 17.832C47.5998 18.12 47.7438 18.4933 47.7438 18.952C47.7438 19.56 47.5518 20.056 47.1678 20.44C46.6558 20.952 45.8664 21.208 44.7998 21.208C44.0851 21.208 43.4984 21.0747 43.0398 20.808C42.5598 20.5307 42.2078 20.1307 41.9838 19.608L43.2318 18.968C43.3811 19.288 43.5784 19.5227 43.8238 19.672C44.0904 19.8427 44.4264 19.928 44.8318 19.928C45.3224 19.928 45.6798 19.816 45.9038 19.592C46.0638 19.4107 46.1438 19.2133 46.1438 19C46.1438 18.776 46.0744 18.5947 45.9358 18.456C45.7544 18.264 45.3811 18.168 44.8158 18.168H44.1118V16.888H44.7038C45.0451 16.888 45.3011 16.8293 45.4718 16.712C45.6638 16.5627 45.7598 16.3653 45.7598 16.12C45.7598 15.864 45.6638 15.672 45.4718 15.544C45.3118 15.4267 45.0611 15.368 44.7198 15.368C44.3998 15.368 44.1064 15.432 43.8398 15.56C43.6158 15.6667 43.4184 15.816 43.2478 16.008ZM49.3826 14.264H50.9506V18.088L55.5586 13.656V21H53.9906V17.08L49.3826 21.512V14.264ZM57.5389 21V14.264H59.1069V16.76H61.8909V14.264H63.4589V21H61.8909V18.2H59.1069V21H57.5389ZM70.3731 15.048V14.264H71.9411V21H70.3731V20.296C69.8505 20.904 69.1785 21.208 68.3571 21.208C67.3651 21.208 66.5705 20.856 65.9731 20.152C65.3865 19.448 65.0931 18.6053 65.0931 17.624C65.0931 16.5573 65.4078 15.704 66.0371 15.064C66.6771 14.4133 67.4558 14.088 68.3731 14.088C69.2158 14.088 69.8825 14.408 70.3731 15.048ZM68.5651 15.496C68.0105 15.496 67.5571 15.704 67.2051 16.12C66.8638 16.536 66.6931 17.048 66.6931 17.656C66.6931 18.2533 66.8638 18.76 67.2051 19.176C67.5571 19.592 68.0105 19.8 68.5651 19.8C69.0985 19.8 69.5465 19.6133 69.9091 19.24C70.2825 18.8667 70.4691 18.344 70.4691 17.672C70.4691 16.9787 70.2825 16.4453 69.9091 16.072C69.5465 15.688 69.0985 15.496 68.5651 15.496Z" fill="white"/>
<path d="M111.96 21.024C111.288 21.792 110.483 22.176 109.544 22.176C108.605 22.176 107.8 21.792 107.128 21.024C106.221 19.9893 105.768 18.5387 105.768 16.672C105.768 14.7947 106.221 13.3387 107.128 12.304C107.8 11.536 108.605 11.152 109.544 11.152C110.483 11.152 111.288 11.536 111.96 12.304C112.867 13.3387 113.32 14.7947 113.32 16.672C113.32 18.5387 112.867 19.9893 111.96 21.024ZM110.984 13.472C110.6 12.8853 110.12 12.592 109.544 12.592C108.968 12.592 108.488 12.8853 108.104 13.472C107.613 14.1973 107.368 15.2587 107.368 16.656C107.368 18.0427 107.613 19.1093 108.104 19.856C108.488 20.4427 108.968 20.736 109.544 20.736C110.12 20.736 110.6 20.4427 110.984 19.856C111.475 19.1093 111.72 18.0427 111.72 16.656C111.72 15.2587 111.475 14.1973 110.984 13.472Z" fill="white"/>
</svg>
